<?xml version="1.0" encoding="UTF-8" standalone="no"?>
<!DOCTYPE svg PUBLIC "-//W3C//DTD SVG 1.1//EN" "http://www.w3.org/Graphics/SVG/1.1/DTD/svg11.dtd">
<svg width="100%" height="100%" viewBox="0 0 600 600" version="1.1" xmlns="http://www.w3.org/2000/svg" xmlns:xlink="http://www.w3.org/1999/xlink" xml:space="preserve" xmlns:serif="http://www.serif.com/" style="fill-rule:evenodd;clip-rule:evenodd;stroke-linejoin:round;stroke-miterlimit:2;">
    <g transform="matrix(1.3717,0,0,1.3717,-176.978,-0.155704)">
        <circle cx="347.728" cy="218.82" r="142.978" style="fill-opacity:0;"/>
        <path d="M347.728,55.43C257.55,55.43 184.337,128.642 184.337,218.82C184.337,308.998 257.55,382.21 347.728,382.21C437.905,382.21 511.118,308.998 511.118,218.82C511.118,128.642 437.905,55.43 347.728,55.43ZM347.728,75.842C426.639,75.842 490.705,139.908 490.705,218.82C490.705,297.732 426.639,361.798 347.728,361.798C268.816,361.798 204.75,297.732 204.75,218.82C204.75,139.908 268.816,75.842 347.728,75.842Z" style="fill:rgb(40,151,189);"/>
    </g>
    <g transform="matrix(1,0,0,1,-365.725,58.5609)">
        <path d="M595.592,334.463L581.041,349.013C579.227,350.827 579.227,353.773 581.041,355.587C582.856,357.401 585.801,357.401 587.615,355.587L590.442,352.76C590.648,352.788 590.857,352.802 591.07,352.802L735.866,352.802L738.651,355.587C740.465,357.401 743.411,357.401 745.225,355.587C747.039,353.773 747.039,350.827 745.225,349.013L731.878,335.666C754.623,329.764 771.438,309.08 771.438,284.499L771.438,178.787C771.438,149.615 747.754,125.931 718.581,125.931L612.869,125.931C583.697,125.931 560.013,149.615 560.013,178.787L560.013,284.499C560.013,307.621 574.891,327.295 595.592,334.463ZM606.257,336.945L599.697,343.505L726.569,343.505L720.389,337.325C719.787,337.345 719.185,337.356 718.581,337.356L612.869,337.356C610.629,337.356 608.42,337.216 606.257,336.945ZM590.946,285.722C598.827,285.722 605.224,292.12 605.224,300C605.224,307.88 598.827,314.278 590.946,314.278C583.066,314.278 576.669,307.88 576.669,300C576.669,292.12 583.066,285.722 590.946,285.722ZM741.938,285.722C749.818,285.722 756.216,292.12 756.216,300C756.216,307.88 749.818,314.278 741.938,314.278C734.058,314.278 727.66,307.88 727.66,300C727.66,292.12 734.058,285.722 741.938,285.722ZM717.234,292.861C717.234,288.921 714.035,285.722 710.095,285.722L621.356,285.722C617.416,285.722 614.217,288.921 614.217,292.861L614.217,307.139C614.217,311.079 617.416,314.278 621.356,314.278L710.095,314.278C714.035,314.278 717.234,311.079 717.234,307.139L717.234,292.861ZM636.493,266.303L584.944,266.303C582.75,266.303 580.645,265.431 579.093,263.879C577.541,262.327 576.669,260.222 576.669,258.027C576.669,239.985 576.669,196.474 576.669,168.315C576.669,161.484 579.383,154.932 584.213,150.101C589.044,145.27 595.596,142.556 602.428,142.556C636.231,142.556 695.219,142.556 729.022,142.556C735.854,142.556 742.406,145.27 747.237,150.101C752.068,154.932 754.782,161.484 754.782,168.315C754.782,196.474 754.782,239.985 754.782,258.027C754.782,260.222 753.91,262.327 752.358,263.879C750.806,265.431 748.701,266.303 746.506,266.303L694.958,266.303C693.427,255.503 686.045,246.575 676.128,242.837C680.796,239.626 683.849,234.316 683.849,228.314C683.849,218.524 675.728,210.576 665.725,210.576C655.723,210.576 647.602,218.524 647.602,228.314C647.602,234.316 650.654,239.626 655.323,242.837C645.406,246.574 638.023,255.502 636.493,266.303ZM713.382,156.838C713.382,153.738 710.866,151.221 707.766,151.221L622.722,151.221C619.622,151.221 617.105,153.738 617.105,156.838L617.105,168.071C617.105,171.171 619.622,173.687 622.722,173.687L707.766,173.687C710.866,173.687 713.382,171.171 713.382,168.071L713.382,156.838ZM596.723,153.953C601.415,153.953 605.224,157.762 605.224,162.454C605.224,167.146 601.415,170.955 596.723,170.955C592.031,170.955 588.222,167.146 588.222,162.454C588.222,157.762 592.031,153.953 596.723,153.953ZM733.437,153.953C738.129,153.953 741.938,157.762 741.938,162.454C741.938,167.146 738.129,170.955 733.437,170.955C728.745,170.955 724.936,167.146 724.936,162.454C724.936,157.762 728.745,153.953 733.437,153.953Z" style="fill:rgb(40,151,189);"/>
    </g>
</svg>
