<?xml version="1.0" encoding="UTF-8" standalone="no"?>
<!DOCTYPE svg PUBLIC "-//W3C//DTD SVG 1.1//EN" "http://www.w3.org/Graphics/SVG/1.1/DTD/svg11.dtd">
<svg width="100%" height="100%" viewBox="0 0 600 600" version="1.1" xmlns="http://www.w3.org/2000/svg" xmlns:xlink="http://www.w3.org/1999/xlink" xml:space="preserve" xmlns:serif="http://www.serif.com/" style="fill-rule:evenodd;clip-rule:evenodd;stroke-linejoin:round;stroke-miterlimit:2;">
    <g transform="matrix(1,0,0,1,-100,65.4198)">
        <path d="M319.416,329.497L319.416,357.08C319.416,360.401 322.112,363.098 325.433,363.098L337.468,363.098C340.789,363.098 343.485,360.401 343.485,357.08L343.485,337.231C344.691,337.313 345.913,337.356 347.144,337.356L452.856,337.356C454.087,337.356 455.309,337.313 456.515,337.231L456.515,357.08C456.515,360.401 459.211,363.098 462.532,363.098L474.567,363.098C477.888,363.098 480.584,360.401 480.584,357.08L480.584,329.497C495.66,320.181 505.712,303.505 505.712,284.499L505.712,178.787C505.712,149.615 482.028,125.931 452.856,125.931L347.144,125.931C317.972,125.931 294.288,149.615 294.288,178.787L294.288,284.499C294.288,303.505 304.34,320.181 319.416,329.497ZM327.902,294.556C335.782,294.556 342.18,300.954 342.18,308.834C342.18,316.714 335.782,323.112 327.902,323.112C320.022,323.112 313.625,316.714 313.625,308.834C313.625,300.954 320.022,294.556 327.902,294.556ZM472.098,294.556C479.978,294.556 486.375,300.954 486.375,308.834C486.375,316.714 479.978,323.112 472.098,323.112C464.218,323.112 457.82,316.714 457.82,308.834C457.82,300.954 464.218,294.556 472.098,294.556ZM327.621,285.597L321.306,285.597C317.064,285.597 313.625,282.159 313.625,277.917L313.625,188.78C313.625,178.788 321.725,170.687 331.717,170.687L468.283,170.687C478.275,170.687 486.375,178.788 486.375,188.78C486.375,214.325 486.375,259.862 486.375,277.917C486.375,282.159 482.936,285.597 478.694,285.597L378.262,285.597C374.856,279.935 369.605,275.506 363.344,273.146C368.011,269.937 371.065,264.626 371.065,258.623C371.065,248.833 362.944,240.885 352.941,240.885C342.939,240.885 334.818,248.833 334.818,258.623C334.818,264.626 337.872,269.937 342.539,273.146C336.278,275.506 331.027,279.935 327.621,285.597ZM456.515,144.512C456.515,141.802 454.315,139.602 451.605,139.602L348.395,139.602C345.685,139.602 343.485,141.802 343.485,144.512L343.485,154.333C343.485,157.043 345.685,159.243 348.395,159.243L451.605,159.243C454.315,159.243 456.515,157.043 456.515,154.333L456.515,144.512Z" style="fill:rgb(238,121,53);"/>
    </g>
    <g transform="matrix(1.3717,0,0,1.3717,-176.978,-0.155704)">
        <path d="M347.728,55.43C257.55,55.43 184.337,128.642 184.337,218.82C184.337,308.998 257.55,382.21 347.728,382.21C437.905,382.21 511.118,308.998 511.118,218.82C511.118,128.642 437.905,55.43 347.728,55.43ZM347.728,75.842C426.639,75.842 490.705,139.908 490.705,218.82C490.705,297.732 426.639,361.798 347.728,361.798C268.816,361.798 204.75,297.732 204.75,218.82C204.75,139.908 268.816,75.842 347.728,75.842Z" style="fill:rgb(238,121,53);"/>
    </g>
</svg>
