<?xml version="1.0" encoding="UTF-8" standalone="no"?>
<!DOCTYPE svg PUBLIC "-//W3C//DTD SVG 1.1//EN" "http://www.w3.org/Graphics/SVG/1.1/DTD/svg11.dtd">
<svg width="100%" height="100%" viewBox="0 0 600 600" version="1.1" xmlns="http://www.w3.org/2000/svg" xmlns:xlink="http://www.w3.org/1999/xlink" xml:space="preserve" xmlns:serif="http://www.serif.com/" style="fill-rule:evenodd;clip-rule:evenodd;stroke-linejoin:round;stroke-miterlimit:2;">
    <g transform="matrix(1.3717,0,0,1.3717,-176.978,-0.155704)">
        <circle cx="347.728" cy="218.82" r="142.978" style="fill-opacity:0;"/>
        <path d="M347.728,55.43C257.55,55.43 184.337,128.642 184.337,218.82C184.337,308.998 257.55,382.21 347.728,382.21C437.905,382.21 511.118,308.998 511.118,218.82C511.118,128.642 437.905,55.43 347.728,55.43ZM347.728,75.842C426.639,75.842 490.705,139.908 490.705,218.82C490.705,297.732 426.639,361.798 347.728,361.798C268.816,361.798 204.75,297.732 204.75,218.82C204.75,139.908 268.816,75.842 347.728,75.842Z" style="fill:rgb(24,169,111);"/>
    </g>
    <g transform="matrix(1,0,0,1,151.476,80.6869)">
        <path d="M143.874,80.181L143.874,131.389L95.668,131.389C66.495,131.389 42.811,155.073 42.811,184.245L42.811,289.958C42.811,319.13 66.495,342.814 95.668,342.814L97.368,342.814L80.371,359.811C78.557,361.625 78.557,364.571 80.371,366.385C82.185,368.199 85.131,368.199 86.945,366.385L110.516,342.814L182.806,342.814L206.377,366.385C208.191,368.199 211.137,368.199 212.951,366.385C214.765,364.571 214.765,361.625 212.951,359.811L195.954,342.814L201.38,342.814C230.552,342.814 254.236,319.13 254.236,289.958L254.236,184.245C254.236,170.625 249.073,158.201 240.602,148.828C245.276,147.278 248.652,142.869 248.652,137.677L248.652,114.185C248.652,107.702 243.389,102.439 236.906,102.439L208.793,102.439C202.311,102.439 197.048,107.702 197.048,114.185L197.048,131.389L153.174,131.389C153.174,131.389 153.174,80.181 153.174,80.181L214.599,80.181C217.165,80.181 219.249,78.097 219.249,75.531C219.249,72.965 217.165,70.881 214.599,70.881L86.396,70.881C83.83,70.881 81.746,72.965 81.746,75.531C81.746,78.097 83.83,80.181 86.396,80.181L143.874,80.181ZM83.103,315.398C88.019,315.398 92.009,319.388 92.009,324.304C92.009,329.219 88.019,333.209 83.103,333.209C78.188,333.209 74.198,329.219 74.198,324.304C74.198,319.388 78.188,315.398 83.103,315.398ZM213.944,315.398C218.859,315.398 222.85,319.388 222.85,324.304C222.85,329.219 218.859,333.209 213.944,333.209C209.029,333.209 205.039,329.219 205.039,324.304C205.039,319.388 209.029,315.398 213.944,315.398ZM63.483,291.204C62.641,289.971 62.149,288.481 62.149,286.875L62.149,197.739C62.149,187.747 70.249,179.646 80.241,179.646L216.807,179.646C226.799,179.646 234.899,187.747 234.899,197.739C234.899,223.284 234.899,268.82 234.899,286.875C234.899,291.118 231.46,294.556 227.218,294.556L120.698,294.556C118.789,284.332 111.603,275.954 102.077,272.362C106.744,269.153 109.797,263.842 109.797,257.839C109.797,248.049 101.677,240.101 91.674,240.101C81.672,240.101 73.551,248.049 73.551,257.839C73.551,263.842 76.604,269.153 81.272,272.362C72.81,275.552 66.194,282.519 63.483,291.204ZM196.662,153.838C196.662,150.738 194.146,148.221 191.046,148.221L106.002,148.221C102.902,148.221 100.385,150.738 100.385,153.838L100.385,165.071C100.385,168.171 102.902,170.687 106.002,170.687L191.046,170.687C194.146,170.687 196.662,168.171 196.662,165.071L196.662,153.838Z" style="fill:rgb(24,169,111);"/>
    </g>
</svg>
